<mxfile host="app.diagrams.net" modified="2021-02-19T23:54:26.396Z" agent="5.0 (Windows NT 10.0; Win64; x64) AppleWebKit/537.36 (KHTML, like Gecko) Chrome/88.0.4324.182 Safari/537.36" etag="tIz33M1m4NZ5WlYzrClG" version="14.4.2" type="github">
  <diagram id="RD4xizVvkoktpSpHCbq2" name="Page-1">
    <mxGraphModel dx="1422" dy="794" grid="1" gridSize="10" guides="1" tooltips="1" connect="1" arrows="1" fold="1" page="1" pageScale="1" pageWidth="827" pageHeight="1169" math="0" shadow="0">
      <root>
        <mxCell id="0" />
        <mxCell id="1" parent="0" />
        <mxCell id="IkshydwUbSUV6-NroPk--1" value="TB_SALDO_CREDOR" style="shape=table;startSize=30;container=1;collapsible=1;childLayout=tableLayout;fixedRows=1;rowLines=0;fontStyle=1;align=center;resizeLast=1;" vertex="1" parent="1">
          <mxGeometry x="80" y="100" width="240" height="210" as="geometry">
            <mxRectangle x="70" y="160" width="160" height="30" as="alternateBounds" />
          </mxGeometry>
        </mxCell>
        <mxCell id="IkshydwUbSUV6-NroPk--2" value="" style="shape=partialRectangle;collapsible=0;dropTarget=0;pointerEvents=0;fillColor=none;top=0;left=0;bottom=1;right=0;points=[[0,0.5],[1,0.5]];portConstraint=eastwest;" vertex="1" parent="IkshydwUbSUV6-NroPk--1">
          <mxGeometry y="30" width="240" height="30" as="geometry" />
        </mxCell>
        <mxCell id="IkshydwUbSUV6-NroPk--3" value="PK" style="shape=partialRectangle;connectable=0;fillColor=none;top=0;left=0;bottom=0;right=0;fontStyle=1;overflow=hidden;" vertex="1" parent="IkshydwUbSUV6-NroPk--2">
          <mxGeometry width="30" height="30" as="geometry" />
        </mxCell>
        <mxCell id="IkshydwUbSUV6-NroPk--4" value="ID_SALDO_CREDOR" style="shape=partialRectangle;connectable=0;fillColor=none;top=0;left=0;bottom=0;right=0;align=left;spacingLeft=6;fontStyle=5;overflow=hidden;" vertex="1" parent="IkshydwUbSUV6-NroPk--2">
          <mxGeometry x="30" width="210" height="30" as="geometry" />
        </mxCell>
        <mxCell id="IkshydwUbSUV6-NroPk--5" value="" style="shape=partialRectangle;collapsible=0;dropTarget=0;pointerEvents=0;fillColor=none;top=0;left=0;bottom=0;right=0;points=[[0,0.5],[1,0.5]];portConstraint=eastwest;" vertex="1" parent="IkshydwUbSUV6-NroPk--1">
          <mxGeometry y="60" width="240" height="30" as="geometry" />
        </mxCell>
        <mxCell id="IkshydwUbSUV6-NroPk--6" value="FK" style="shape=partialRectangle;connectable=0;fillColor=none;top=0;left=0;bottom=0;right=0;editable=1;overflow=hidden;" vertex="1" parent="IkshydwUbSUV6-NroPk--5">
          <mxGeometry width="30" height="30" as="geometry" />
        </mxCell>
        <mxCell id="IkshydwUbSUV6-NroPk--7" value="Num_Soli" style="shape=partialRectangle;connectable=0;fillColor=none;top=0;left=0;bottom=0;right=0;align=left;spacingLeft=6;overflow=hidden;" vertex="1" parent="IkshydwUbSUV6-NroPk--5">
          <mxGeometry x="30" width="210" height="30" as="geometry" />
        </mxCell>
        <mxCell id="IkshydwUbSUV6-NroPk--8" value="" style="shape=partialRectangle;collapsible=0;dropTarget=0;pointerEvents=0;fillColor=none;top=0;left=0;bottom=0;right=0;points=[[0,0.5],[1,0.5]];portConstraint=eastwest;" vertex="1" parent="IkshydwUbSUV6-NroPk--1">
          <mxGeometry y="90" width="240" height="30" as="geometry" />
        </mxCell>
        <mxCell id="IkshydwUbSUV6-NroPk--9" value="FK" style="shape=partialRectangle;connectable=0;fillColor=none;top=0;left=0;bottom=0;right=0;editable=1;overflow=hidden;" vertex="1" parent="IkshydwUbSUV6-NroPk--8">
          <mxGeometry width="30" height="30" as="geometry" />
        </mxCell>
        <mxCell id="IkshydwUbSUV6-NroPk--10" value="Cod_Org" style="shape=partialRectangle;connectable=0;fillColor=none;top=0;left=0;bottom=0;right=0;align=left;spacingLeft=6;overflow=hidden;" vertex="1" parent="IkshydwUbSUV6-NroPk--8">
          <mxGeometry x="30" width="210" height="30" as="geometry" />
        </mxCell>
        <mxCell id="IkshydwUbSUV6-NroPk--11" value="" style="shape=partialRectangle;collapsible=0;dropTarget=0;pointerEvents=0;fillColor=none;top=0;left=0;bottom=0;right=0;points=[[0,0.5],[1,0.5]];portConstraint=eastwest;" vertex="1" parent="IkshydwUbSUV6-NroPk--1">
          <mxGeometry y="120" width="240" height="30" as="geometry" />
        </mxCell>
        <mxCell id="IkshydwUbSUV6-NroPk--12" value="FK" style="shape=partialRectangle;connectable=0;fillColor=none;top=0;left=0;bottom=0;right=0;editable=1;overflow=hidden;" vertex="1" parent="IkshydwUbSUV6-NroPk--11">
          <mxGeometry width="30" height="30" as="geometry" />
        </mxCell>
        <mxCell id="IkshydwUbSUV6-NroPk--13" value="Cod_Fase" style="shape=partialRectangle;connectable=0;fillColor=none;top=0;left=0;bottom=0;right=0;align=left;spacingLeft=6;overflow=hidden;" vertex="1" parent="IkshydwUbSUV6-NroPk--11">
          <mxGeometry x="30" width="210" height="30" as="geometry" />
        </mxCell>
        <mxCell id="IkshydwUbSUV6-NroPk--14" value="" style="shape=partialRectangle;collapsible=0;dropTarget=0;pointerEvents=0;fillColor=none;top=0;left=0;bottom=0;right=0;points=[[0,0.5],[1,0.5]];portConstraint=eastwest;" vertex="1" parent="IkshydwUbSUV6-NroPk--1">
          <mxGeometry y="150" width="240" height="30" as="geometry" />
        </mxCell>
        <mxCell id="IkshydwUbSUV6-NroPk--15" value="FK" style="shape=partialRectangle;connectable=0;fillColor=none;top=0;left=0;bottom=0;right=0;editable=1;overflow=hidden;" vertex="1" parent="IkshydwUbSUV6-NroPk--14">
          <mxGeometry width="30" height="30" as="geometry" />
        </mxCell>
        <mxCell id="IkshydwUbSUV6-NroPk--16" value="Cod_Etapa" style="shape=partialRectangle;connectable=0;fillColor=none;top=0;left=0;bottom=0;right=0;align=left;spacingLeft=6;overflow=hidden;" vertex="1" parent="IkshydwUbSUV6-NroPk--14">
          <mxGeometry x="30" width="210" height="30" as="geometry" />
        </mxCell>
        <mxCell id="IkshydwUbSUV6-NroPk--17" value="" style="shape=partialRectangle;collapsible=0;dropTarget=0;pointerEvents=0;fillColor=none;top=0;left=0;bottom=0;right=0;points=[[0,0.5],[1,0.5]];portConstraint=eastwest;" vertex="1" parent="IkshydwUbSUV6-NroPk--1">
          <mxGeometry y="180" width="240" height="30" as="geometry" />
        </mxCell>
        <mxCell id="IkshydwUbSUV6-NroPk--18" value="" style="shape=partialRectangle;connectable=0;fillColor=none;top=0;left=0;bottom=0;right=0;editable=1;overflow=hidden;" vertex="1" parent="IkshydwUbSUV6-NroPk--17">
          <mxGeometry width="30" height="30" as="geometry" />
        </mxCell>
        <mxCell id="IkshydwUbSUV6-NroPk--19" value="XML_Dados" style="shape=partialRectangle;connectable=0;fillColor=none;top=0;left=0;bottom=0;right=0;align=left;spacingLeft=6;overflow=hidden;" vertex="1" parent="IkshydwUbSUV6-NroPk--17">
          <mxGeometry x="30" width="210" height="30" as="geometry" />
        </mxCell>
        <mxCell id="IkshydwUbSUV6-NroPk--20" style="edgeStyle=orthogonalEdgeStyle;rounded=0;orthogonalLoop=1;jettySize=auto;html=1;exitX=1;exitY=0.5;exitDx=0;exitDy=0;entryX=1;entryY=0.5;entryDx=0;entryDy=0;" edge="1" parent="1" source="IkshydwUbSUV6-NroPk--21" target="IkshydwUbSUV6-NroPk--14">
          <mxGeometry relative="1" as="geometry" />
        </mxCell>
        <mxCell id="IkshydwUbSUV6-NroPk--21" value="TB_ETAPA" style="shape=table;startSize=30;container=1;collapsible=1;childLayout=tableLayout;fixedRows=1;rowLines=0;fontStyle=1;align=center;resizeLast=1;" vertex="1" parent="1">
          <mxGeometry x="80" y="340" width="240" height="90" as="geometry">
            <mxRectangle x="70" y="160" width="160" height="30" as="alternateBounds" />
          </mxGeometry>
        </mxCell>
        <mxCell id="IkshydwUbSUV6-NroPk--22" value="" style="shape=partialRectangle;collapsible=0;dropTarget=0;pointerEvents=0;fillColor=none;top=0;left=0;bottom=1;right=0;points=[[0,0.5],[1,0.5]];portConstraint=eastwest;" vertex="1" parent="IkshydwUbSUV6-NroPk--21">
          <mxGeometry y="30" width="240" height="30" as="geometry" />
        </mxCell>
        <mxCell id="IkshydwUbSUV6-NroPk--23" value="PK" style="shape=partialRectangle;connectable=0;fillColor=none;top=0;left=0;bottom=0;right=0;fontStyle=1;overflow=hidden;" vertex="1" parent="IkshydwUbSUV6-NroPk--22">
          <mxGeometry width="30" height="30" as="geometry" />
        </mxCell>
        <mxCell id="IkshydwUbSUV6-NroPk--24" value="Cod_Etapa" style="shape=partialRectangle;connectable=0;fillColor=none;top=0;left=0;bottom=0;right=0;align=left;spacingLeft=6;fontStyle=5;overflow=hidden;" vertex="1" parent="IkshydwUbSUV6-NroPk--22">
          <mxGeometry x="30" width="210" height="30" as="geometry" />
        </mxCell>
        <mxCell id="IkshydwUbSUV6-NroPk--25" value="" style="shape=partialRectangle;collapsible=0;dropTarget=0;pointerEvents=0;fillColor=none;top=0;left=0;bottom=0;right=0;points=[[0,0.5],[1,0.5]];portConstraint=eastwest;" vertex="1" parent="IkshydwUbSUV6-NroPk--21">
          <mxGeometry y="60" width="240" height="30" as="geometry" />
        </mxCell>
        <mxCell id="IkshydwUbSUV6-NroPk--26" value="" style="shape=partialRectangle;connectable=0;fillColor=none;top=0;left=0;bottom=0;right=0;editable=1;overflow=hidden;" vertex="1" parent="IkshydwUbSUV6-NroPk--25">
          <mxGeometry width="30" height="30" as="geometry" />
        </mxCell>
        <mxCell id="IkshydwUbSUV6-NroPk--27" value="Des_Etapa" style="shape=partialRectangle;connectable=0;fillColor=none;top=0;left=0;bottom=0;right=0;align=left;spacingLeft=6;overflow=hidden;" vertex="1" parent="IkshydwUbSUV6-NroPk--25">
          <mxGeometry x="30" width="210" height="30" as="geometry" />
        </mxCell>
        <mxCell id="IkshydwUbSUV6-NroPk--28" value="TB_SOLI" style="shape=table;startSize=30;container=1;collapsible=1;childLayout=tableLayout;fixedRows=1;rowLines=0;fontStyle=1;align=center;resizeLast=1;" vertex="1" parent="1">
          <mxGeometry x="530" y="210" width="240" height="240" as="geometry">
            <mxRectangle x="70" y="160" width="160" height="30" as="alternateBounds" />
          </mxGeometry>
        </mxCell>
        <mxCell id="IkshydwUbSUV6-NroPk--29" value="" style="shape=partialRectangle;collapsible=0;dropTarget=0;pointerEvents=0;fillColor=none;top=0;left=0;bottom=1;right=0;points=[[0,0.5],[1,0.5]];portConstraint=eastwest;" vertex="1" parent="IkshydwUbSUV6-NroPk--28">
          <mxGeometry y="30" width="240" height="30" as="geometry" />
        </mxCell>
        <mxCell id="IkshydwUbSUV6-NroPk--30" value="PK" style="shape=partialRectangle;connectable=0;fillColor=none;top=0;left=0;bottom=0;right=0;fontStyle=1;overflow=hidden;" vertex="1" parent="IkshydwUbSUV6-NroPk--29">
          <mxGeometry width="30" height="30" as="geometry" />
        </mxCell>
        <mxCell id="IkshydwUbSUV6-NroPk--31" value="(Num_Soli,Cod_Org,Cod_Fase)" style="shape=partialRectangle;connectable=0;fillColor=none;top=0;left=0;bottom=0;right=0;align=left;spacingLeft=6;fontStyle=5;overflow=hidden;" vertex="1" parent="IkshydwUbSUV6-NroPk--29">
          <mxGeometry x="30" width="210" height="30" as="geometry" />
        </mxCell>
        <mxCell id="IkshydwUbSUV6-NroPk--32" value="" style="shape=partialRectangle;collapsible=0;dropTarget=0;pointerEvents=0;fillColor=none;top=0;left=0;bottom=0;right=0;points=[[0,0.5],[1,0.5]];portConstraint=eastwest;" vertex="1" parent="IkshydwUbSUV6-NroPk--28">
          <mxGeometry y="60" width="240" height="30" as="geometry" />
        </mxCell>
        <mxCell id="IkshydwUbSUV6-NroPk--33" value="" style="shape=partialRectangle;connectable=0;fillColor=none;top=0;left=0;bottom=0;right=0;editable=1;overflow=hidden;" vertex="1" parent="IkshydwUbSUV6-NroPk--32">
          <mxGeometry width="30" height="30" as="geometry" />
        </mxCell>
        <mxCell id="IkshydwUbSUV6-NroPk--34" value="Num_Soli" style="shape=partialRectangle;connectable=0;fillColor=none;top=0;left=0;bottom=0;right=0;align=left;spacingLeft=6;overflow=hidden;" vertex="1" parent="IkshydwUbSUV6-NroPk--32">
          <mxGeometry x="30" width="210" height="30" as="geometry" />
        </mxCell>
        <mxCell id="IkshydwUbSUV6-NroPk--35" value="" style="shape=partialRectangle;collapsible=0;dropTarget=0;pointerEvents=0;fillColor=none;top=0;left=0;bottom=0;right=0;points=[[0,0.5],[1,0.5]];portConstraint=eastwest;" vertex="1" parent="IkshydwUbSUV6-NroPk--28">
          <mxGeometry y="90" width="240" height="30" as="geometry" />
        </mxCell>
        <mxCell id="IkshydwUbSUV6-NroPk--36" value="" style="shape=partialRectangle;connectable=0;fillColor=none;top=0;left=0;bottom=0;right=0;editable=1;overflow=hidden;" vertex="1" parent="IkshydwUbSUV6-NroPk--35">
          <mxGeometry width="30" height="30" as="geometry" />
        </mxCell>
        <mxCell id="IkshydwUbSUV6-NroPk--37" value="Cod_Org" style="shape=partialRectangle;connectable=0;fillColor=none;top=0;left=0;bottom=0;right=0;align=left;spacingLeft=6;overflow=hidden;" vertex="1" parent="IkshydwUbSUV6-NroPk--35">
          <mxGeometry x="30" width="210" height="30" as="geometry" />
        </mxCell>
        <mxCell id="IkshydwUbSUV6-NroPk--38" value="" style="shape=partialRectangle;collapsible=0;dropTarget=0;pointerEvents=0;fillColor=none;top=0;left=0;bottom=0;right=0;points=[[0,0.5],[1,0.5]];portConstraint=eastwest;" vertex="1" parent="IkshydwUbSUV6-NroPk--28">
          <mxGeometry y="120" width="240" height="30" as="geometry" />
        </mxCell>
        <mxCell id="IkshydwUbSUV6-NroPk--39" value="" style="shape=partialRectangle;connectable=0;fillColor=none;top=0;left=0;bottom=0;right=0;editable=1;overflow=hidden;" vertex="1" parent="IkshydwUbSUV6-NroPk--38">
          <mxGeometry width="30" height="30" as="geometry" />
        </mxCell>
        <mxCell id="IkshydwUbSUV6-NroPk--40" value="Cod_Fase" style="shape=partialRectangle;connectable=0;fillColor=none;top=0;left=0;bottom=0;right=0;align=left;spacingLeft=6;overflow=hidden;" vertex="1" parent="IkshydwUbSUV6-NroPk--38">
          <mxGeometry x="30" width="210" height="30" as="geometry" />
        </mxCell>
        <mxCell id="IkshydwUbSUV6-NroPk--41" value="" style="shape=partialRectangle;collapsible=0;dropTarget=0;pointerEvents=0;fillColor=none;top=0;left=0;bottom=0;right=0;points=[[0,0.5],[1,0.5]];portConstraint=eastwest;" vertex="1" parent="IkshydwUbSUV6-NroPk--28">
          <mxGeometry y="150" width="240" height="30" as="geometry" />
        </mxCell>
        <mxCell id="IkshydwUbSUV6-NroPk--42" value="" style="shape=partialRectangle;connectable=0;fillColor=none;top=0;left=0;bottom=0;right=0;editable=1;overflow=hidden;" vertex="1" parent="IkshydwUbSUV6-NroPk--41">
          <mxGeometry width="30" height="30" as="geometry" />
        </mxCell>
        <mxCell id="IkshydwUbSUV6-NroPk--43" value="CPF_CNPJ" style="shape=partialRectangle;connectable=0;fillColor=none;top=0;left=0;bottom=0;right=0;align=left;spacingLeft=6;overflow=hidden;" vertex="1" parent="IkshydwUbSUV6-NroPk--41">
          <mxGeometry x="30" width="210" height="30" as="geometry" />
        </mxCell>
        <mxCell id="IkshydwUbSUV6-NroPk--44" value="" style="shape=partialRectangle;collapsible=0;dropTarget=0;pointerEvents=0;fillColor=none;top=0;left=0;bottom=0;right=0;points=[[0,0.5],[1,0.5]];portConstraint=eastwest;" vertex="1" parent="IkshydwUbSUV6-NroPk--28">
          <mxGeometry y="180" width="240" height="30" as="geometry" />
        </mxCell>
        <mxCell id="IkshydwUbSUV6-NroPk--45" value="" style="shape=partialRectangle;connectable=0;fillColor=none;top=0;left=0;bottom=0;right=0;editable=1;overflow=hidden;" vertex="1" parent="IkshydwUbSUV6-NroPk--44">
          <mxGeometry width="30" height="30" as="geometry" />
        </mxCell>
        <mxCell id="IkshydwUbSUV6-NroPk--46" value="Des_Ativdade" style="shape=partialRectangle;connectable=0;fillColor=none;top=0;left=0;bottom=0;right=0;align=left;spacingLeft=6;overflow=hidden;" vertex="1" parent="IkshydwUbSUV6-NroPk--44">
          <mxGeometry x="30" width="210" height="30" as="geometry" />
        </mxCell>
        <mxCell id="IkshydwUbSUV6-NroPk--47" value="" style="shape=partialRectangle;collapsible=0;dropTarget=0;pointerEvents=0;fillColor=none;top=0;left=0;bottom=0;right=0;points=[[0,0.5],[1,0.5]];portConstraint=eastwest;" vertex="1" parent="IkshydwUbSUV6-NroPk--28">
          <mxGeometry y="210" width="240" height="30" as="geometry" />
        </mxCell>
        <mxCell id="IkshydwUbSUV6-NroPk--48" value="" style="shape=partialRectangle;connectable=0;fillColor=none;top=0;left=0;bottom=0;right=0;editable=1;overflow=hidden;" vertex="1" parent="IkshydwUbSUV6-NroPk--47">
          <mxGeometry width="30" height="30" as="geometry" />
        </mxCell>
        <mxCell id="IkshydwUbSUV6-NroPk--49" value="Des_Etapa" style="shape=partialRectangle;connectable=0;fillColor=none;top=0;left=0;bottom=0;right=0;align=left;spacingLeft=6;overflow=hidden;" vertex="1" parent="IkshydwUbSUV6-NroPk--47">
          <mxGeometry x="30" width="210" height="30" as="geometry" />
        </mxCell>
        <mxCell id="IkshydwUbSUV6-NroPk--50" style="edgeStyle=orthogonalEdgeStyle;rounded=0;orthogonalLoop=1;jettySize=auto;html=1;entryX=0;entryY=0.5;entryDx=0;entryDy=0;" edge="1" parent="1" source="IkshydwUbSUV6-NroPk--5" target="IkshydwUbSUV6-NroPk--32">
          <mxGeometry relative="1" as="geometry" />
        </mxCell>
        <mxCell id="IkshydwUbSUV6-NroPk--51" style="edgeStyle=orthogonalEdgeStyle;rounded=0;orthogonalLoop=1;jettySize=auto;html=1;entryX=0;entryY=0.5;entryDx=0;entryDy=0;" edge="1" parent="1" source="IkshydwUbSUV6-NroPk--8" target="IkshydwUbSUV6-NroPk--35">
          <mxGeometry relative="1" as="geometry" />
        </mxCell>
        <mxCell id="IkshydwUbSUV6-NroPk--52" style="edgeStyle=orthogonalEdgeStyle;rounded=0;orthogonalLoop=1;jettySize=auto;html=1;entryX=0;entryY=0.5;entryDx=0;entryDy=0;" edge="1" parent="1" source="IkshydwUbSUV6-NroPk--11" target="IkshydwUbSUV6-NroPk--38">
          <mxGeometry relative="1" as="geometry" />
        </mxCell>
      </root>
    </mxGraphModel>
  </diagram>
</mxfile>
